<?xml version="1.0" encoding="utf-8"?>
<!-- Generator: Adobe Illustrator 18.1.1, SVG Export Plug-In . SVG Version: 6.00 Build 0)  -->
<!DOCTYPE svg PUBLIC "-//W3C//DTD SVG 1.0//EN" "http://www.w3.org/TR/2001/REC-SVG-20010904/DTD/svg10.dtd">
<svg version="1.0" id="Camada_1" xmlns="http://www.w3.org/2000/svg" xmlns:xlink="http://www.w3.org/1999/xlink" x="0px" y="0px"
	 viewBox="0 0 46 46" enable-background="new 0 0 46 46" xml:space="preserve">
<g>
	<path fill="#0087E5" d="M45,36.3c0,4.805-3.895,8.7-8.7,8.7H9.7C4.895,45,1,41.104,1,36.3V9.7C1,4.896,4.895,1,9.7,1h26.6
		C41.105,1,45,4.896,45,9.7V36.3z"/>
	<path fill="#6F6F6F" d="M36.3,46H9.7C4.352,46,0,41.648,0,36.3V9.7C0,4.352,4.352,0,9.7,0h26.6C41.648,0,46,4.352,46,9.7v26.6
		C46,41.648,41.648,46,36.3,46z M9.7,2C5.454,2,2,5.454,2,9.7v26.6C2,40.546,5.454,44,9.7,44h26.6c4.246,0,7.7-3.454,7.7-7.7V9.7
		C44,5.454,40.546,2,36.3,2H9.7z"/>
</g>
<polygon fill="#FFFFFF" points="35.928,9.708 19.37,26.267 10.463,17.358 5.599,22.224 17.936,34.561 19.37,35.955 19.387,35.938 
	19.407,35.957 40.792,14.572 "/>
</svg>
