<?xml version="1.0" encoding="utf-8"?>
<!-- Generator: Adobe Illustrator 16.0.0, SVG Export Plug-In . SVG Version: 6.00 Build 0)  -->
<!DOCTYPE svg PUBLIC "-//W3C//DTD SVG 1.1//EN" "http://www.w3.org/Graphics/SVG/1.1/DTD/svg11.dtd">
<svg version="1.1" id="Camada_1" xmlns="http://www.w3.org/2000/svg" xmlns:xlink="http://www.w3.org/1999/xlink" x="0px" y="0px"
	 width="595.3px" height="595.3px" viewBox="123.3 0 595.3 595.3" enable-background="new 123.3 0 595.3 595.3"
	 xml:space="preserve">
<g>
	<path fill="#FFFFFF" d="M692.7,482.7c0,62.2-50.4,112.6-112.6,112.6H235.9c-62.2,0-112.6-50.4-112.6-112.6V138.5
		c0-62.2,50.4-112.6,112.6-112.6h344.2c62.2,0,112.6,50.4,112.6,112.6V482.7z"/>
	<path fill="#6F6F6F" d="M593.1,595.3H248.8c-69.2,0-125.5-56.3-125.5-125.5V125.5C123.3,56.3,179.6,0,248.8,0h344.2
		c69.2,0,125.5,56.3,125.5,125.5v344.2C718.6,539,662.3,595.3,593.1,595.3z M248.8,25.9c-54.9,0-99.6,44.7-99.6,99.6v344.2
		c0,54.9,44.7,99.6,99.6,99.6h344.2c54.9,0,99.6-44.7,99.6-99.6V125.5c0-54.9-44.7-99.6-99.6-99.6H248.8z"/>
</g>
</svg>
