<?xml version="1.0" encoding="utf-8"?>
<!-- Generator: Adobe Illustrator 16.0.0, SVG Export Plug-In . SVG Version: 6.00 Build 0)  -->
<!DOCTYPE svg PUBLIC "-//W3C//DTD SVG 1.1//EN" "http://www.w3.org/Graphics/SVG/1.1/DTD/svg11.dtd">
<svg version="1.1" id="Camada_1" xmlns="http://www.w3.org/2000/svg" xmlns:xlink="http://www.w3.org/1999/xlink" x="0px" y="0px"
	 width="50px" height="50px" viewBox="10 0 50 50" enable-background="new 10 0 50 50" xml:space="preserve">
<g id="FKJMyF.tif">
	<g>
		<path d="M34.7,0c0.2,0,0.4,0,0.6,0c0.3,0,0.5,0.1,0.8,0.1c1.4,0.2,2.8,0.2,4.1,0.5C50.8,2.8,59,11.7,59.9,23
			c0.2,2.6,0.1,5.3-0.6,7.8C56.8,41.3,48,49,37.1,49.9c-2.3,0.2-4.7,0.1-6.9-0.4C24,48.2,19,45.1,15.2,40.2
			c-3.2-4.1-4.9-8.8-5.1-14.1c0-0.3-0.1-0.5-0.1-0.8c0-0.2,0-0.4,0-0.6c0-0.2,0.1-0.5,0.1-0.7c0.1-1.3,0.2-2.6,0.4-3.9
			c1.3-6.1,4.3-11.1,9.3-14.9c4.1-3.2,8.8-4.9,14.1-5.1C34.2,0.1,34.5,0,34.7,0z M41.6,20.2c-0.3,0-0.4,0-0.6,0c-1.1,0-2.2,0-3.3,0
			c-0.3,0-0.5-0.1-0.4-0.4c0-0.8,0-1.6,0-2.3c0-1,0.5-1.5,1.5-1.5c0.8,0,1.5,0,2.3,0c0.4,0,0.5-0.1,0.5-0.5c0-1.3,0-2.7,0-4
			c0-0.4-0.1-0.5-0.5-0.5c-1.6,0-3.2,0-4.7,0.1c-1.6,0.1-3.1,0.7-4,2.2c-0.7,1-0.9,2.2-0.9,3.3c0,1,0,2,0,3c0,0.5-0.2,0.6-0.6,0.6
			c-0.6,0-1.3,0-1.9,0c-0.3,0-0.4,0.1-0.4,0.4c0,1.4,0,2.7,0,4.1c0,0.3,0.1,0.4,0.4,0.4c0.6,0,1.3,0,1.9,0c0.5,0,0.6,0.2,0.6,0.6
			c0,4.2,0,8.4,0,12.7c0,0.7,0,0.7,0.7,0.7c1.5,0,3,0,4.4,0c0.7,0,0.7,0,0.7-0.7c0-4.3,0-8.5,0-12.8c0-0.4,0.1-0.6,0.5-0.6
			c0.9,0,1.8,0,2.7,0c0.5,0,0.6-0.1,0.6-0.6c0-0.5,0.1-1,0.1-1.5C41.4,22.1,41.5,21.2,41.6,20.2z"/>
	</g>
</g>
</svg>
