<?xml version="1.0" encoding="utf-8"?>
<!-- Generator: Adobe Illustrator 16.0.0, SVG Export Plug-In . SVG Version: 6.00 Build 0)  -->
<!DOCTYPE svg PUBLIC "-//W3C//DTD SVG 1.1//EN" "http://www.w3.org/Graphics/SVG/1.1/DTD/svg11.dtd">
<svg version="1.1" id="Camada_1" xmlns="http://www.w3.org/2000/svg" xmlns:xlink="http://www.w3.org/1999/xlink" x="0px" y="0px"
	 width="57.5px" height="50px" viewBox="6.2 0 57.5 50" enable-background="new 6.2 0 57.5 50" xml:space="preserve">
<g id="N9ssdo.tif">
	<g>
		<path d="M6.2,20.2c0.2-0.5,0.3-1,0.5-1.5c1.1,0.9,2.2,1.7,3.2,2.5c6.8,5.5,13.7,10.9,20.5,16.4
			c2.9,2.4,6.1,2.3,9.1,0c7.4-5.9,14.8-11.8,22.2-17.7c0.5-0.4,0.9-0.7,1.6-1.3c0.2,0.9,0.4,1.6,0.4,2.3c0,7.1,0,14.1,0,21.2
			c0,1.3,0,2.6-0.2,3.9c-0.1,0.5-0.4,1-0.6,1.7c-0.9-0.7-1.7-1.3-2.4-1.9c-3.8-3-7.7-6.1-11.5-9.1c-0.2-0.1-0.4-0.4-0.6-0.3
			c-0.3,0-0.7,0.2-0.8,0.4c-0.1,0.3,0,0.8,0.2,1c0.7,0.7,1.6,1.3,2.4,1.9c3.8,3,7.6,6,11.3,9c0.1,0.1,0.1,0.1,0.3,0.2
			c-0.8,0.7-1.7,1.1-2.7,1.2c-0.2,0-0.4,0-0.5,0c-15.7,0-31.5,0-47.2,0c-1.2,0-2.2-0.3-3.2-1.2c1.2-1,2.4-1.9,3.6-2.9
			c3.4-2.7,6.8-5.5,10.2-8.2c0.5-0.4,0.6-0.9,0.3-1.3c-0.4-0.5-0.8-0.2-1.2,0.1c-4.5,3.6-9,7.2-13.5,10.8c-0.1,0.1-0.2,0.2-0.5,0.4
			c-0.3-0.9-0.6-1.7-0.9-2.6C6.2,36.9,6.2,28.5,6.2,20.2z"/>
		<path d="M35.7,0c2.2,0.3,3.8,1.7,5.5,2.9c6.6,4.4,13.1,8.9,19.6,13.3c0.1,0.1,0.2,0.1,0.3,0.3
			c-2.4,1.9-4.8,3.9-7.3,5.9c0-1.3,0-2.4,0-3.5c0-1.9-1.1-3.4-2.7-3.8c-0.5-0.1-1-0.2-1.5-0.2c-9.7,0-19.4,0-29.1,0
			c-2.6,0-4.2,1.6-4.2,4.2c0,1,0,2.1,0,3.3c-2.5-2-4.9-3.9-7.4-5.9c1-0.7,1.9-1.3,2.9-2c6.5-4.4,13-8.9,19.5-13.2
			c0.9-0.6,2-0.8,3-1.2C34.7,0,35.2,0,35.7,0z"/>
		<path d="M36.1,25.8c-0.3,0.6-0.7,1-1.4,0.8c-0.7-0.1-1-0.6-1.2-1.2c-0.5-1.8,0.6-4.1,2.2-4.5
			c0.1,0,0.2-0.1,0.3-0.1c0.6,0.1,1.2,0.1,1.8,0.2c-0.2,1.3-0.4,2.6-0.6,3.9c0,0.2-0.1,0.4-0.1,0.6c0,0.4,0.2,0.6,0.6,0.4
			c0.4-0.2,0.8-0.5,1-0.9c0.7-1.3,0.7-2.6,0.1-3.9c-0.9-2.1-4-2.4-5.6-0.6c-1.3,1.4-1.8,4.2-0.9,6c0.7,1.4,2.1,2,3.7,1.9
			c0.6,0,1.2-0.2,1.8-0.2c0.1,0.3,0.1,0.5,0.2,0.8c-1.3,0.4-2.7,0.5-4,0.2c-2.1-0.6-3-2.1-3.1-4.2c-0.1-1.5,0.1-2.9,0.9-4.2
			c1.3-2.3,4.2-2.7,6.1-1.9c1.8,0.7,2.4,2.9,2.2,4.6c-0.1,1-0.5,2-1.3,2.7C37.7,27,36.7,26.8,36.1,25.8z M36.6,21.9
			c-0.8-0.2-1.3,0.1-1.5,0.6c-0.3,0.7-0.6,1.5-0.7,2.3c0,0.3,0.3,0.9,0.6,1c0.5,0.2,0.9-0.3,1-0.8C36.3,24,36.4,22.9,36.6,21.9z"/>
	</g>
</g>
</svg>
