<?xml version="1.0" encoding="utf-8"?>
<!-- Generator: Adobe Illustrator 16.0.0, SVG Export Plug-In . SVG Version: 6.00 Build 0)  -->
<!DOCTYPE svg PUBLIC "-//W3C//DTD SVG 1.1//EN" "http://www.w3.org/Graphics/SVG/1.1/DTD/svg11.dtd">
<svg version="1.1" id="Camada_1" xmlns="http://www.w3.org/2000/svg" xmlns:xlink="http://www.w3.org/1999/xlink" x="0px" y="0px"
	 width="50px" height="50px" viewBox="10 0 50 50" enable-background="new 10 0 50 50" xml:space="preserve">
<g id="CLSWQg.tif">
	<g>
		<path d="M60,22.6c0,1.6,0,3.2,0,4.8c0,0.1-0.1,0.2-0.1,0.3c-0.2,1-0.3,2-0.5,3c-2.3,10-10.8,18.1-21.9,19.2
			c-2.4,0.2-4.9,0.2-7.3-0.3c-5.9-1.2-10.7-4.1-14.5-8.8c-3.1-3.8-4.9-8.2-5.5-13.1c-0.3-2.6-0.2-5.1,0.3-7.6
			c1.1-5.5,3.8-10.2,8.1-13.9c6-5.1,13-7,20.7-5.8c4.7,0.8,8.9,2.8,12.4,6.1c4.1,3.7,6.7,8.4,7.8,13.8C59.7,21.1,59.9,21.8,60,22.6z
			 M33,30c1.1,1.5,2.5,2.1,4.2,2.2c3,0.1,5.5-1,7.4-3.4c2.4-3,3.2-6.6,2.9-10.3c-0.3-3.5-2.1-6.1-5.1-8C39.8,9,37,8.6,34,8.9
			c-2.9,0.3-5.6,1.3-7.7,3.3c-3.3,3.1-4.6,6.8-3.4,11.2c0.5,1.8,1.5,3.3,3.3,4.1c0.6,0.3,1,0.1,1.1-0.6c0.1-0.4,0.2-0.9,0.3-1.3
			c0.1-0.4,0-0.8-0.2-1.1c-0.1-0.1-0.2-0.3-0.3-0.4c-0.9-1.3-1.1-2.8-0.9-4.3c0.3-2.6,1.5-4.7,3.7-6.2c2.5-1.7,5.2-2,8.1-1.2
			c2.6,0.7,4.2,2.3,4.8,4.9c0.3,1.4,0.2,2.8,0,4.1c-0.2,1.8-0.7,3.6-1.8,5.2c-0.7,1.1-1.6,1.9-2.9,2.2C37,29.2,35.9,29,35,28.1
			c-0.9-0.9-1-1.9-0.7-3.1c0.3-1.2,0.7-2.4,1.1-3.6c0.3-1,0.5-1.9,0.5-3c-0.1-1.3-0.9-2.3-2.2-2.4c-1.2-0.1-2.1,0.4-2.8,1.3
			c-1.4,1.9-1.3,3.9-0.7,6.1c0.1,0.2,0.1,0.5,0.1,0.8c-0.2,1-0.5,2.1-0.7,3.1c-0.6,2.9-1.3,5.7-1.8,8.6c-0.3,1.7-0.1,3.3,0.2,5
			c0,0.1,0.1,0.3,0.2,0.3c0.1,0,0.2-0.1,0.3-0.2c1.4-1.9,2.7-3.8,3.3-6.1C32.2,33.3,32.6,31.7,33,30z"/>
	</g>
</g>
</svg>
