<?xml version="1.0" encoding="utf-8"?>
<!-- Generator: Adobe Illustrator 16.0.0, SVG Export Plug-In . SVG Version: 6.00 Build 0)  -->
<!DOCTYPE svg PUBLIC "-//W3C//DTD SVG 1.1//EN" "http://www.w3.org/Graphics/SVG/1.1/DTD/svg11.dtd">
<svg version="1.1" id="Camada_1" xmlns="http://www.w3.org/2000/svg" xmlns:xlink="http://www.w3.org/1999/xlink" x="0px" y="0px"
	 width="50px" height="50px" viewBox="10 0 50 50" enable-background="new 10 0 50 50" xml:space="preserve">
<g id="FNAda1.tif">
	<g>
		<path d="M60,23.5c0,1,0,2,0,2.9c0,0.2-0.1,0.3-0.1,0.5c-0.2,1.2-0.3,2.5-0.6,3.7c-1.3,5.6-4.2,10.3-8.7,13.9
			c-3.3,2.7-7.1,4.4-11.4,5.1c-0.9,0.2-1.9,0.3-2.8,0.4c-1,0-2,0-2.9,0c-1.1-0.2-2.3-0.3-3.4-0.5c-6.3-1.3-11.4-4.5-15.2-9.6
			c-4.2-5.7-5.7-12.1-4.5-19.2c1-6.1,4-11.1,8.8-15C25,0.9,31.8-0.9,39.3,0.4c6.7,1.1,12,4.6,16.1,10c2.4,3.3,3.9,7,4.4,11
			C59.8,22.2,59.9,22.8,60,23.5z M31.1,29.3c-0.2-0.2-0.3-0.3-0.5-0.4c-1.9-1.9-3.9-3.9-5.8-5.8c-0.7-0.7-1.4-1.1-2.4-1.1
			c-1.5-0.1-2.8,0.7-3.4,2c-0.6,1.4-0.3,2.9,0.8,4c3.1,3.1,6.2,6.2,9.3,9.3c1.2,1.2,2.5,1.2,3.7,0c4.7-4.7,9.4-9.4,14-14
			c1.1-1.1,2.3-2.2,3.4-3.4c1.7-1.7,1.2-4.4-0.8-5.6c-1.4-0.8-3-0.5-4.2,0.7c-4.6,4.6-9.2,9.2-13.7,13.7
			C31.4,28.9,31.2,29.1,31.1,29.3z"/>
	</g>
</g>
</svg>
