<?xml version="1.0" encoding="utf-8"?>
<!-- Generator: Adobe Illustrator 16.0.0, SVG Export Plug-In . SVG Version: 6.00 Build 0)  -->
<!DOCTYPE svg PUBLIC "-//W3C//DTD SVG 1.1//EN" "http://www.w3.org/Graphics/SVG/1.1/DTD/svg11.dtd">
<svg version="1.1" id="Camada_1" xmlns="http://www.w3.org/2000/svg" xmlns:xlink="http://www.w3.org/1999/xlink" x="0px" y="0px"
	 width="50px" height="50px" viewBox="10 0 50 50" enable-background="new 10 0 50 50" xml:space="preserve">
<g id="AJ4JEj.tif">
	<g>
		<path d="M60,22.4c0,1.8,0,3.5,0,5.3c-0.1,0.8-0.2,1.6-0.4,2.4c-2.1,9.1-7.6,15.4-16.4,18.6c-2.4,0.9-5,1.3-7.6,1.3
			c-1.9,0-3.8,0-5.6-0.4c-5.9-1.3-10.8-4.3-14.6-9.1c-4.8-6.1-6.4-13-4.8-20.6c1.2-5.9,4.3-10.8,9-14.5C23,2.6,27,0.9,31.4,0.3
			c0.7-0.1,1.5-0.2,2.2-0.3c1,0,2,0,2.9,0c0.1,0,0.2,0.1,0.4,0.1c1.6,0.3,3.2,0.4,4.7,0.8c9.5,2.9,15.5,9.2,17.9,18.8
			C59.7,20.6,59.8,21.5,60,22.4z M21.4,33.9c0,0.1,0,0.1,0,0.2c0.1,0.1,0.2,0.2,0.3,0.2c2.2,1.2,4.6,2,7.2,2.1
			c3.5,0.2,6.9-0.5,9.8-2.5c4.7-3.2,7.1-7.8,7.5-13.5c0-0.6,0.2-1.2,0.7-1.6c0.5-0.5,1.1-1.1,1.6-1.7c0.2-0.2,0.3-0.4,0.5-0.7
			c-0.9,0.1-1.7,0.7-2.6,0.6c0.7-1,1.5-1.7,1.9-2.9c-0.2,0.1-0.3,0.1-0.4,0.1c-0.7,0.3-1.5,0.6-2.2,0.9c-0.6,0.3-1,0.2-1.5-0.2
			c-1.1-0.9-2.4-1.4-3.9-1.3c-3.1,0.2-5.5,2.7-5.4,5.8c0,0.4,0,0.8,0,1.2c-4.8-0.3-8.6-2.5-11.7-6.1c-1.1,2.6-0.9,5,1,7
			c0.1,0.2,0.2,0.4,0.4,0.5c0,0-0.1,0.1-0.1,0.1c-0.7-0.2-1.4-0.4-2.1-0.6c0.3,2.8,1.8,4.6,4.2,5.7c-0.7,0-1.3,0.1-2.1,0.1
			c0.9,2.5,2.9,3.4,5.1,4.1C26.9,33.4,24.2,33.9,21.4,33.9z"/>
	</g>
</g>
</svg>
