<?xml version="1.0" encoding="utf-8"?>
<!-- Generator: Adobe Illustrator 18.1.1, SVG Export Plug-In . SVG Version: 6.00 Build 0)  -->
<!DOCTYPE svg PUBLIC "-//W3C//DTD SVG 1.0//EN" "http://www.w3.org/TR/2001/REC-SVG-20010904/DTD/svg10.dtd">
<svg version="1.0" id="Camada_1" xmlns="http://www.w3.org/2000/svg" xmlns:xlink="http://www.w3.org/1999/xlink" x="0px" y="0px"
	 viewBox="0 0 444.397 320.023" enable-background="new 0 0 444.397 320.023" xml:space="preserve">
<g id="tIARAb.tif">
	<g>
		<path d="M444.397,92.703c-16.649,17.275-33.056,34.298-49.907,51.783c-47.91-47.073-104.978-72.373-172.289-72.4
			C154.805,72.06,97.743,97.402,49.504,144.78C32.872,127.464,16.429,110.344,0,93.239C107.376-22.389,314.85-39.286,444.397,92.703
			z"/>
		<path d="M372.532,169.136c-16.864,17.408-33.512,34.594-50.164,51.783c-61.516-60.953-147.174-52.713-199.831,0.02
			c-16.77-17.224-33.535-34.444-50.293-51.655C148.849,87.802,287.992,81.989,372.532,169.136z"/>
		<path d="M293.863,247.134c-23.833,24.395-47.431,48.549-71.212,72.889c-23.642-24.585-47.075-48.953-70.491-73.304
			C181.124,213.428,251.173,203.478,293.863,247.134z"/>
	</g>
</g>
</svg>
