<?xml version="1.0" encoding="utf-8"?>
<!-- Generator: Adobe Illustrator 16.0.0, SVG Export Plug-In . SVG Version: 6.00 Build 0)  -->
<!DOCTYPE svg PUBLIC "-//W3C//DTD SVG 1.1//EN" "http://www.w3.org/Graphics/SVG/1.1/DTD/svg11.dtd">
<svg version="1.1" id="Camada_1" xmlns="http://www.w3.org/2000/svg" xmlns:xlink="http://www.w3.org/1999/xlink" x="0px" y="0px"
	 width="50px" height="50px" viewBox="10 0 50 50" enable-background="new 10 0 50 50" xml:space="preserve">
<g id="VaR6G9.tif">
	<g>
		<path d="M60,22.7c0,1.6,0,3.1,0,4.7c-0.1,0.8-0.2,1.6-0.4,2.3c-1.4,7-5.1,12.5-11.2,16.4c-4.2,2.7-8.8,4-13.8,3.9
			c-2,0-3.9-0.3-5.9-0.8c-9.7-2.5-17.6-10.9-18.6-22c-0.3-3.3,0.1-6.5,1-9.6c1.5-4.7,4.1-8.7,7.9-11.8c3.8-3.2,8.2-5.1,13.2-5.6
			c0.6-0.1,1.2-0.1,1.8-0.2c0.7,0,1.4,0,2.1,0c0.1,0,0.2,0.1,0.2,0.1c1,0.1,1.9,0.2,2.9,0.3c5.2,0.9,9.7,3.2,13.4,6.9
			c3.7,3.6,6,8,6.9,13.1C59.7,21.1,59.9,21.9,60,22.7z M35.8,23.7c-3.9,0.1-7,0.1-10.1,0.6c-1.8,0.3-2.2,0.6-2.6,2.3
			c0,0.2-0.1,0.4-0.1,0.6c-0.5,3.1-0.5,6.3,0,9.4c0.3,2.1,0.7,2.5,2.4,2.9c0.1,0,0.1,0,0.2,0c2.4,0.2,4.9,0.5,7.3,0.6
			c2.7,0.1,5.5-0.1,8.3-0.2c1.2-0.1,2.4-0.3,3.6-0.5c1-0.1,1.7-0.7,1.8-1.7c0.2-1.4,0.5-2.8,0.6-4.2c0.1-1.6,0-3.2-0.1-4.7
			c-0.1-1-0.3-2-0.6-3c-0.2-0.7-0.7-1.2-1.4-1.3c-0.7-0.1-1.4-0.3-2.2-0.4C40.4,24,37.7,23.8,35.8,23.7z M37.2,16.7
			c0-0.6,0-1.2,0-1.8c0.1-1.7-1.2-2.7-3-2.3c-1.2,0.2-1.7,0.9-1.7,2.1c0,1.3,0,2.5,0,3.8c0,1.8,1.1,2.7,2.9,2.5
			c1.1-0.2,1.8-1,1.8-2.2C37.2,18.1,37.2,17.4,37.2,16.7z M29.4,14.1C29.4,14.1,29.3,14.1,29.4,14.1c-0.1-0.1-0.2-0.3-0.2-0.4
			c-0.3-1.2-0.6-2.3-1-3.5c0-0.1-0.2-0.3-0.3-0.3c-0.5,0-1,0-1.6,0c0,0.2,0.1,0.4,0.1,0.5c0.3,0.9,0.6,1.9,0.9,2.8
			c0.9,2.1,1.3,4.3,1.1,6.6c0,0.3,0,0.6,0,1c0.7,0,1.2,0,1.8,0c0-1.4,0-2.7,0-4c0-0.3,0.1-0.6,0.1-0.9c0.6-1.9,1.2-3.7,1.8-5.6
			c0-0.1,0.1-0.3,0.1-0.5c-0.5,0-1,0-1.5,0c-0.3,0-0.4,0.1-0.5,0.4C30.1,11.5,29.7,12.8,29.4,14.1z M38.5,12.7c0,0.1,0,0.1,0,0.2
			c0,2.2,0,4.4,0,6.6c0,1.1,0.8,1.6,1.9,1.1c0.3-0.1,0.5-0.3,0.7-0.4c0.1-0.1,0.2-0.2,0.4-0.3c0,0.3,0,0.5,0.1,0.7
			c0.5,0,1.1,0,1.6,0c0-2.7,0-5.3,0-8c-0.5,0-1,0-1.6,0c0,0.6,0,1.3,0,1.9c0,1.3,0,2.6,0,3.9c0,0.4-0.5,0.9-0.9,0.8
			c-0.6,0-0.4-0.4-0.4-0.8c0-1.7,0-3.5,0-5.2c0-0.2,0-0.4,0-0.7C39.6,12.7,39,12.7,38.5,12.7z"/>
		<path d="M36.2,27c0.5,0,0.9,0,1.4,0c0,1,0,2,0,3.1c0.2-0.2,0.4-0.3,0.5-0.4c1-0.6,2.1,0,2.1,1.2c0,1.5,0,3.1,0,4.6
			c0,1.1-1.1,1.7-2.1,1.1c-0.2-0.1-0.3-0.2-0.5-0.3c-0.2,0.5-0.5,0.5-1.5,0.4C36.2,33.5,36.2,30.3,36.2,27z M37.6,33.1
			c0,0.6,0,1.3,0,1.9c0,0.5,0.2,0.8,0.7,0.8c0.4,0,0.6-0.2,0.6-0.8c0-0.7,0-1.4,0-2.2c0-0.5,0-1.1,0-1.6c0-0.4-0.2-0.7-0.6-0.7
			c-0.4,0-0.6,0.2-0.6,0.7C37.6,31.9,37.6,32.5,37.6,33.1z"/>
		<path d="M45.2,33.3c-1,0-1.8,0-2.7,0c0,0.7,0,1.3,0,2c0,0.2,0.3,0.4,0.6,0.5c0.3,0.1,0.6-0.1,0.6-0.5
			c0-0.3,0.1-0.5,0.1-0.8c0.5,0,0.9,0,1.3,0c0.1,1.1-0.2,2-1,2.3c-0.9,0.4-2.1,0.3-2.6-0.4c-0.3-0.4-0.5-0.9-0.5-1.3
			c-0.1-1.3,0-2.5,0-3.8c0-1.1,0.8-1.8,2-1.9c1.1-0.1,1.9,0.5,2.1,1.6C45.2,31.8,45.2,32.5,45.2,33.3z M42.5,32.3c0.4,0,0.7,0,1,0
			c0.1,0,0.2-0.1,0.2-0.2c0-0.3,0-0.6-0.1-1c-0.1-0.3-0.3-0.5-0.6-0.5c-0.4,0-0.6,0.2-0.6,0.6C42.4,31.6,42.5,31.9,42.5,32.3z"/>
		<path d="M33.7,29.6c0.5,0,0.9,0,1.3,0c0,2.4,0,4.8,0,7.2c-0.3,0-0.6,0-1,0c-0.6,0.1-0.3-0.4-0.4-0.6
			c-0.5,0.2-0.9,0.5-1.4,0.7c-0.7,0.2-1.1-0.1-1.2-0.8c0-0.1-0.1-0.2-0.1-0.3c0-2.1,0-4.1,0-6.2c0.5,0,0.9,0,1.4,0
			c0,0.2,0,0.4,0,0.5c0,1.6,0,3.2,0,4.8c0,0.3-0.1,0.7,0.4,0.7c0.4,0,0.8-0.4,0.9-0.7c0-0.1,0-0.3,0-0.4c0-1.4,0-2.9,0-4.3
			C33.6,30,33.7,29.8,33.7,29.6z"/>
		<path d="M27,28.4c-0.6,0-1.1,0-1.6,0c0-0.5,0-0.9,0-1.3c1.6,0,3.2,0,4.9,0c0,0.4,0,0.8,0,1.3c-0.4,0-0.8,0-1.1,0
			c-0.4,0-0.5,0.1-0.5,0.5c0,2.4,0,4.9,0,7.3c0,0.5-0.1,0.7-0.6,0.6c-1,0-1,0-1-1c0-2.3,0-4.5,0-6.8C27,28.8,27,28.6,27,28.4z"/>
		<path d="M35.5,16.7c0,0.7,0,1.4,0,2.1c0,0.5-0.3,0.8-0.7,0.8c-0.4,0-0.6-0.3-0.7-0.8c0-1.4,0-2.8,0-4.2
			c0-0.5,0.3-0.7,0.7-0.7c0.4,0,0.7,0.3,0.7,0.7C35.5,15.3,35.5,16,35.5,16.7z"/>
	</g>
</g>
</svg>
